# xmcd
#
# Track frame offsets:
#	150
#	13102
#	29171
#	47385
#	65513
#	79211
#	93879
#	107150
#	122825
#	138976
#	158575
#	175996
#
# Disc length: 2560 seconds
#
# Revision: 0
# Processed by: cddbd v1.5.1PL0 Copyright (c) Steve Scherf et al.
# Submitted via: dBpowerAMP V4.0
#
DISCID=9a09fe0c
DTITLE=Carus - Songs From Martin St.
DYEAR=2003
DGENRE=Easy Listening
TTITLE0=Just To Get To You
TTITLE1=Cup A Tea
TTITLE2=Leave This Town
TTITLE3=Breathe
TTITLE4=Big Brother
TTITLE5=Moonrise
TTITLE6=Run With Me
TTITLE7=Sweet Place
TTITLE8=Grow To Overthrow
TTITLE9=One More Time
TTITLE10=I Cant Get Enough
TTITLE11=Rundown Garden
EXTD=
EXTT0=
EXTT1=
EXTT2=
EXTT3=
EXTT4=
EXTT5=
EXTT6=
EXTT7=
EXTT8=
EXTT9=
EXTT10=
EXTT11=
PLAYORDER=
